STARTFONT 2.1
FONT -Monotype-Arial Narrow-Regular-I-Normal--14-140-75-75-P-60-iso8859-4
SIZE 14 75 75
FONTBOUNDINGBOX 16 18 -3 -4

STARTPROPERTIES 24
FOUNDRY "Monotype"
FAMILY_NAME "Arial Narrow"
WEIGHT_NAME "Regular"
SLANT "I"
SETWIDTH_NAME "Normal"
ADD_STYLE_NAME ""
PIXEL_SIZE 14
POINT_SIZE 140
RESOLUTION_X 75
RESOLUTION_Y 75
SPACING "P"
AVERAGE_WIDTH 60
CHARSET_REGISTRY "iso8859"
CHARSET_ENCODING "4"
FACE_NAME "Arial Narrow it ISO Latin4"
_DEC_DEVICE_FONTNAMES "PS=arialnarrow-italic-lat4"
COPYRIGHT "Copyright (c) 1994 Monotype Typography Ltd."
CAP_HEIGHT 12
X_HEIGHT 9
WEIGHT 10
QUAD_WIDTH 7
DEFAULT_CHAR 160
FONT_DESCENT 4
FONT_ASCENT 14
ENDPROPERTIES

CHARS 191

STARTCHAR space
ENCODING 32
SWIDTH 228 0
DWIDTH 3 0
BBX 0 0 0 0
BITMAP
ENDCHAR

STARTCHAR exclam
ENCODING 33
SWIDTH 228 0
DWIDTH 3 0
BBX 2 11 1 0
BITMAP
40
40
40
40
80
80
80
80
00
80
80
ENDCHAR

STARTCHAR quotedbl
ENCODING 34
SWIDTH 291 0
DWIDTH 4 0
BBX 4 4 0 7
BITMAP
50
50
A0
A0
ENDCHAR

STARTCHAR numbersign
ENCODING 35
SWIDTH 456 0
DWIDTH 7 0
BBX 7 11 0 0
BITMAP
14
14
14
7E
28
28
28
FC
28
28
28
ENDCHAR

STARTCHAR dollar
ENCODING 36
SWIDTH 456 0
DWIDTH 7 0
BBX 7 14 0 -2
BITMAP
08
3C
4A
4A
50
30
18
14
14
A4
A4
78
20
20
ENDCHAR

STARTCHAR percent
ENCODING 37
SWIDTH 729 0
DWIDTH 11 0
BBX 9 12 1 -1
BITMAP
3080
5100
9200
9200
A400
CC00
0980
1280
1480
2480
4500
0600
ENDCHAR

STARTCHAR ampersand
ENCODING 38
SWIDTH 547 0
DWIDTH 8 0
BBX 7 11 1 0
BITMAP
18
24
24
24
18
30
4A
8A
84
8C
72
ENDCHAR

STARTCHAR quoteright
ENCODING 39
SWIDTH 182 0
DWIDTH 3 0
BBX 2 4 1 7
BITMAP
C0
40
40
80
ENDCHAR

STARTCHAR parenleft
ENCODING 40
SWIDTH 273 0
DWIDTH 4 0
BBX 4 15 1 -4
BITMAP
10
20
20
40
40
80
80
80
80
80
80
80
80
40
40
ENDCHAR

STARTCHAR parenright
ENCODING 41
SWIDTH 273 0
DWIDTH 4 0
BBX 4 15 0 -4
BITMAP
20
20
10
10
10
10
10
10
10
10
20
20
40
40
80
ENDCHAR

STARTCHAR asterisk
ENCODING 42
SWIDTH 319 0
DWIDTH 5 0
BBX 5 5 0 6
BITMAP
20
A8
70
30
48
ENDCHAR

STARTCHAR plus
ENCODING 43
SWIDTH 479 0
DWIDTH 7 0
BBX 7 7 0 2
BITMAP
10
10
10
FE
10
10
10
ENDCHAR

STARTCHAR comma
ENCODING 44
SWIDTH 228 0
DWIDTH 3 0
BBX 2 4 1 -2
BITMAP
C0
40
40
80
ENDCHAR

STARTCHAR minus
ENCODING 45
SWIDTH 479 0
DWIDTH 7 0
BBX 6 1 1 5
BITMAP
FC
ENDCHAR

STARTCHAR period
ENCODING 46
SWIDTH 228 0
DWIDTH 3 0
BBX 1 2 1 0
BITMAP
80
80
ENDCHAR

STARTCHAR slash
ENCODING 47
SWIDTH 228 0
DWIDTH 3 0
BBX 6 12 -1 -1
BITMAP
04
04
08
08
10
10
20
20
40
40
80
80
ENDCHAR

STARTCHAR zero
ENCODING 48
SWIDTH 456 0
DWIDTH 7 0
BBX 6 11 1 0
BITMAP
18
24
44
44
84
84
84
88
88
90
60
ENDCHAR

STARTCHAR one
ENCODING 49
SWIDTH 456 0
DWIDTH 7 0
BBX 4 11 2 0
BITMAP
10
30
50
A0
20
20
20
40
40
40
40
ENDCHAR

STARTCHAR two
ENCODING 50
SWIDTH 456 0
DWIDTH 7 0
BBX 6 11 1 0
BITMAP
38
44
44
04
04
08
10
20
40
80
F8
ENDCHAR

STARTCHAR three
ENCODING 51
SWIDTH 456 0
DWIDTH 7 0
BBX 6 11 1 0
BITMAP
38
44
04
08
30
10
08
08
88
90
60
ENDCHAR

STARTCHAR four
ENCODING 52
SWIDTH 456 0
DWIDTH 7 0
BBX 6 11 1 0
BITMAP
04
0C
14
24
48
48
88
FC
10
10
10
ENDCHAR

STARTCHAR five
ENCODING 53
SWIDTH 456 0
DWIDTH 7 0
BBX 6 11 1 0
BITMAP
3C
20
40
70
48
08
08
08
90
90
60
ENDCHAR

STARTCHAR six
ENCODING 54
SWIDTH 456 0
DWIDTH 7 0
BBX 6 11 1 0
BITMAP
18
24
44
40
B0
C8
88
88
88
90
60
ENDCHAR

STARTCHAR seven
ENCODING 55
SWIDTH 456 0
DWIDTH 7 0
BBX 5 11 2 0
BITMAP
F8
08
10
10
20
20
40
40
80
80
80
ENDCHAR

STARTCHAR eight
ENCODING 56
SWIDTH 456 0
DWIDTH 7 0
BBX 6 11 1 0
BITMAP
18
24
44
48
30
30
48
88
88
90
60
ENDCHAR

STARTCHAR nine
ENCODING 57
SWIDTH 456 0
DWIDTH 7 0
BBX 6 11 1 0
BITMAP
18
24
44
44
44
4C
34
08
88
90
60
ENDCHAR

STARTCHAR colon
ENCODING 58
SWIDTH 228 0
DWIDTH 3 0
BBX 2 8 1 0
BITMAP
40
40
00
00
00
00
80
80
ENDCHAR

STARTCHAR semicolon
ENCODING 59
SWIDTH 228 0
DWIDTH 3 0
BBX 3 10 0 -2
BITMAP
20
20
00
00
00
00
C0
40
40
80
ENDCHAR

STARTCHAR less
ENCODING 60
SWIDTH 479 0
DWIDTH 7 0
BBX 6 7 1 2
BITMAP
0C
18
60
C0
60
18
0C
ENDCHAR

STARTCHAR equal
ENCODING 61
SWIDTH 479 0
DWIDTH 7 0
BBX 6 4 1 3
BITMAP
FC
00
00
FC
ENDCHAR

STARTCHAR greater
ENCODING 62
SWIDTH 479 0
DWIDTH 7 0
BBX 6 7 1 2
BITMAP
C0
60
18
0C
18
60
C0
ENDCHAR

STARTCHAR question
ENCODING 63
SWIDTH 456 0
DWIDTH 7 0
BBX 5 11 2 0
BITMAP
70
88
88
08
10
20
40
40
00
80
80
ENDCHAR

STARTCHAR at
ENCODING 64
SWIDTH 832 0
DWIDTH 12 0
BBX 11 14 1 -3
BITMAP
1F00
3080
4040
4D20
9320
B120
A120
A320
A240
B640
5B80
4020
20C0
1F80
ENDCHAR

STARTCHAR A
ENCODING 65
SWIDTH 547 0
DWIDTH 8 0
BBX 7 11 0 0
BITMAP
06
0A
0A
12
12
22
22
7E
42
82
82
ENDCHAR

STARTCHAR B
ENCODING 66
SWIDTH 547 0
DWIDTH 8 0
BBX 7 11 1 0
BITMAP
3C
22
22
62
44
78
44
C4
84
88
F0
ENDCHAR

STARTCHAR C
ENCODING 67
SWIDTH 592 0
DWIDTH 9 0
BBX 8 11 1 0
BITMAP
1C
22
41
40
80
80
80
82
82
44
38
ENDCHAR

STARTCHAR D
ENCODING 68
SWIDTH 592 0
DWIDTH 9 0
BBX 8 11 1 0
BITMAP
3C
22
21
61
41
41
41
C2
82
84
F8
ENDCHAR

STARTCHAR E
ENCODING 69
SWIDTH 547 0
DWIDTH 8 0
BBX 7 11 1 0
BITMAP
3E
20
20
60
40
7C
40
C0
80
80
FC
ENDCHAR

STARTCHAR F
ENCODING 70
SWIDTH 501 0
DWIDTH 7 0
BBX 7 11 1 0
BITMAP
3E
20
20
60
40
7C
40
C0
80
80
80
ENDCHAR

STARTCHAR G
ENCODING 71
SWIDTH 638 0
DWIDTH 10 0
BBX 8 11 2 0
BITMAP
1C
22
41
40
80
80
8E
82
82
44
38
ENDCHAR

STARTCHAR H
ENCODING 72
SWIDTH 592 0
DWIDTH 9 0
BBX 8 11 1 0
BITMAP
21
21
21
63
42
7E
42
C6
84
84
84
ENDCHAR

STARTCHAR I
ENCODING 73
SWIDTH 228 0
DWIDTH 4 0
BBX 3 11 1 0
BITMAP
20
20
20
60
40
40
40
C0
80
80
80
ENDCHAR

STARTCHAR J
ENCODING 74
SWIDTH 410 0
DWIDTH 6 0
BBX 6 11 0 0
BITMAP
04
04
04
0C
08
08
08
18
90
90
60
ENDCHAR

STARTCHAR K
ENCODING 75
SWIDTH 547 0
DWIDTH 8 0
BBX 7 11 1 0
BITMAP
22
24
28
50
60
60
50
D0
88
88
84
ENDCHAR

STARTCHAR L
ENCODING 76
SWIDTH 456 0
DWIDTH 7 0
BBX 6 11 1 0
BITMAP
20
20
20
60
40
40
40
C0
80
80
FC
ENDCHAR

STARTCHAR M
ENCODING 77
SWIDTH 683 0
DWIDTH 11 0
BBX 10 11 1 0
BITMAP
2040
2040
20C0
7180
5280
5280
5480
D580
9900
9900
9100
ENDCHAR

STARTCHAR N
ENCODING 78
SWIDTH 592 0
DWIDTH 9 0
BBX 8 11 1 0
BITMAP
21
21
31
53
52
5A
4A
CE
8C
84
84
ENDCHAR

STARTCHAR O
ENCODING 79
SWIDTH 638 0
DWIDTH 10 0
BBX 8 11 2 0
BITMAP
1C
22
41
41
81
81
81
82
82
44
38
ENDCHAR

STARTCHAR P
ENCODING 80
SWIDTH 547 0
DWIDTH 8 0
BBX 7 11 1 0
BITMAP
3C
22
22
62
44
78
40
C0
80
80
80
ENDCHAR

STARTCHAR Q
ENCODING 81
SWIDTH 638 0
DWIDTH 10 0
BBX 8 12 2 -1
BITMAP
1C
22
41
41
81
81
81
82
8A
44
3A
01
ENDCHAR

STARTCHAR R
ENCODING 82
SWIDTH 592 0
DWIDTH 9 0
BBX 8 11 1 0
BITMAP
3E
21
21
61
42
7C
48
C4
84
82
82
ENDCHAR

STARTCHAR S
ENCODING 83
SWIDTH 547 0
DWIDTH 8 0
BBX 7 11 1 0
BITMAP
1C
22
42
40
20
18
04
04
84
88
70
ENDCHAR

STARTCHAR T
ENCODING 84
SWIDTH 501 0
DWIDTH 7 0
BBX 8 11 1 0
BITMAP
FF
08
08
08
10
10
10
30
20
20
20
ENDCHAR

STARTCHAR U
ENCODING 85
SWIDTH 592 0
DWIDTH 9 0
BBX 8 11 1 0
BITMAP
21
21
63
42
42
42
C6
84
84
88
70
ENDCHAR

STARTCHAR V
ENCODING 86
SWIDTH 547 0
DWIDTH 8 0
BBX 7 11 2 0
BITMAP
82
82
84
84
88
48
50
50
60
60
40
ENDCHAR

STARTCHAR W
ENCODING 87
SWIDTH 774 0
DWIDTH 12 0
BBX 11 11 2 0
BITMAP
8420
8C20
8C40
9440
9480
A480
A500
A500
C600
C600
8400
ENDCHAR

STARTCHAR X
ENCODING 88
SWIDTH 547 0
DWIDTH 8 0
BBX 9 11 0 0
BITMAP
4080
2080
2100
1200
1400
0800
1400
2400
4200
8200
8100
ENDCHAR

STARTCHAR Y
ENCODING 89
SWIDTH 547 0
DWIDTH 8 0
BBX 8 11 1 0
BITMAP
81
82
42
44
28
18
10
30
20
20
20
ENDCHAR

STARTCHAR Z
ENCODING 90
SWIDTH 501 0
DWIDTH 8 0
BBX 8 11 1 0
BITMAP
3F
02
02
04
08
10
10
20
40
40
FE
ENDCHAR

STARTCHAR bracketleft
ENCODING 91
SWIDTH 228 0
DWIDTH 3 0
BBX 5 14 0 -3
BITMAP
38
20
20
20
40
40
40
40
40
40
80
80
80
E0
ENDCHAR

STARTCHAR backslash
ENCODING 92
SWIDTH 228 0
DWIDTH 3 0
BBX 6 12 -1 -1
BITMAP
80
80
40
40
20
20
10
10
08
08
04
04
ENDCHAR

STARTCHAR bracketright
ENCODING 93
SWIDTH 228 0
DWIDTH 3 0
BBX 5 14 0 -3
BITMAP
38
08
08
08
10
10
10
10
10
10
20
20
20
E0
ENDCHAR

STARTCHAR asciicircum
ENCODING 94
SWIDTH 385 0
DWIDTH 6 0
BBX 5 6 1 5
BITMAP
20
20
50
50
90
88
ENDCHAR

STARTCHAR underscore
ENCODING 95
SWIDTH 456 0
DWIDTH 7 0
BBX 7 1 0 -2
BITMAP
FE
ENDCHAR

STARTCHAR quoteleft
ENCODING 96
SWIDTH 182 0
DWIDTH 3 0
BBX 2 4 1 7
BITMAP
40
80
80
C0
ENDCHAR

STARTCHAR a
ENCODING 97
SWIDTH 456 0
DWIDTH 7 0
BBX 6 8 1 0
BITMAP
38
44
04
78
88
88
98
6C
ENDCHAR

STARTCHAR b
ENCODING 98
SWIDTH 456 0
DWIDTH 7 0
BBX 6 11 1 0
BITMAP
20
20
20
58
64
44
44
84
88
C8
B0
ENDCHAR

STARTCHAR c
ENCODING 99
SWIDTH 410 0
DWIDTH 6 0
BBX 5 8 1 0
BITMAP
30
48
48
80
80
88
90
60
ENDCHAR

STARTCHAR d
ENCODING 100
SWIDTH 456 0
DWIDTH 7 0
BBX 7 11 1 0
BITMAP
02
02
02
34
4C
44
84
88
88
98
68
ENDCHAR

STARTCHAR e
ENCODING 101
SWIDTH 456 0
DWIDTH 7 0
BBX 6 8 1 0
BITMAP
38
44
44
F8
80
80
88
70
ENDCHAR

STARTCHAR f
ENCODING 102
SWIDTH 228 0
DWIDTH 3 0
BBX 5 11 1 0
BITMAP
18
20
20
F0
40
40
40
80
80
80
80
ENDCHAR

STARTCHAR g
ENCODING 103
SWIDTH 456 0
DWIDTH 7 0
BBX 7 11 0 -3
BITMAP
1A
26
22
42
42
44
4C
34
04
88
70
ENDCHAR

STARTCHAR h
ENCODING 104
SWIDTH 456 0
DWIDTH 7 0
BBX 6 11 1 0
BITMAP
20
20
20
58
64
44
44
48
88
88
88
ENDCHAR

STARTCHAR i
ENCODING 105
SWIDTH 182 0
DWIDTH 3 0
BBX 2 11 1 0
BITMAP
40
40
00
40
40
40
40
80
80
80
80
ENDCHAR

STARTCHAR j
ENCODING 106
SWIDTH 182 0
DWIDTH 3 0
BBX 4 14 -1 -3
BITMAP
10
10
00
10
10
10
20
20
20
20
20
40
40
80
ENDCHAR

STARTCHAR k
ENCODING 107
SWIDTH 410 0
DWIDTH 6 0
BBX 6 11 1 0
BITMAP
20
20
20
44
48
50
60
D0
90
88
88
ENDCHAR

STARTCHAR l
ENCODING 108
SWIDTH 182 0
DWIDTH 3 0
BBX 3 11 1 0
BITMAP
20
20
20
40
40
40
40
80
80
80
80
ENDCHAR

STARTCHAR m
ENCODING 109
SWIDTH 683 0
DWIDTH 9 0
BBX 8 8 1 0
BITMAP
56
69
49
49
92
92
92
92
ENDCHAR

STARTCHAR n
ENCODING 110
SWIDTH 456 0
DWIDTH 7 0
BBX 6 8 1 0
BITMAP
58
64
44
44
88
88
88
88
ENDCHAR

STARTCHAR o
ENCODING 111
SWIDTH 456 0
DWIDTH 7 0
BBX 6 8 1 0
BITMAP
38
44
44
84
84
88
88
70
ENDCHAR

STARTCHAR p
ENCODING 112
SWIDTH 456 0
DWIDTH 7 0
BBX 7 11 0 -3
BITMAP
2C
32
22
22
42
44
64
58
80
80
80
ENDCHAR

STARTCHAR q
ENCODING 113
SWIDTH 456 0
DWIDTH 7 0
BBX 6 11 1 -3
BITMAP
34
4C
44
84
88
88
98
68
10
10
10
ENDCHAR

STARTCHAR r
ENCODING 114
SWIDTH 273 0
DWIDTH 4 0
BBX 4 8 1 0
BITMAP
50
60
40
40
80
80
80
80
ENDCHAR

STARTCHAR s
ENCODING 115
SWIDTH 410 0
DWIDTH 6 0
BBX 6 8 1 0
BITMAP
38
44
40
30
08
88
88
70
ENDCHAR

STARTCHAR t
ENCODING 116
SWIDTH 228 0
DWIDTH 3 0
BBX 4 11 1 0
BITMAP
20
20
20
F0
40
40
40
80
80
80
40
ENDCHAR

STARTCHAR u
ENCODING 117
SWIDTH 456 0
DWIDTH 7 0
BBX 6 8 1 0
BITMAP
44
44
44
44
88
88
98
68
ENDCHAR

STARTCHAR v
ENCODING 118
SWIDTH 410 0
DWIDTH 6 0
BBX 6 8 1 0
BITMAP
84
84
88
88
50
50
60
60
ENDCHAR

STARTCHAR w
ENCODING 119
SWIDTH 592 0
DWIDTH 9 0
BBX 9 8 1 0
BITMAP
8880
9880
9900
A900
6600
4600
4400
4400
ENDCHAR

STARTCHAR x
ENCODING 120
SWIDTH 410 0
DWIDTH 6 0
BBX 7 8 0 0
BITMAP
42
24
28
10
10
28
48
84
ENDCHAR

STARTCHAR y
ENCODING 121
SWIDTH 410 0
DWIDTH 6 0
BBX 7 11 0 -3
BITMAP
42
42
44
24
28
28
10
10
20
20
C0
ENDCHAR

STARTCHAR z
ENCODING 122
SWIDTH 410 0
DWIDTH 6 0
BBX 6 8 1 0
BITMAP
7C
04
08
10
20
40
80
F8
ENDCHAR

STARTCHAR braceleft
ENCODING 123
SWIDTH 274 0
DWIDTH 4 0
BBX 5 14 0 -3
BITMAP
18
20
20
20
20
40
80
40
40
40
40
40
40
30
ENDCHAR

STARTCHAR bar
ENCODING 124
SWIDTH 213 0
DWIDTH 3 0
BBX 1 15 1 -4
BITMAP
80
80
80
80
80
80
80
80
80
80
80
80
80
80
80
ENDCHAR

STARTCHAR braceright
ENCODING 125
SWIDTH 274 0
DWIDTH 4 0
BBX 5 14 0 -3
BITMAP
60
10
10
10
10
10
10
08
10
20
20
20
20
C0
ENDCHAR

STARTCHAR asciitilde
ENCODING 126
SWIDTH 479 0
DWIDTH 7 0
BBX 6 2 1 4
BITMAP
E4
9C
ENDCHAR

STARTCHAR space
ENCODING 160
SWIDTH 228 0
DWIDTH 4 0
BBX 0 0 0 0
BITMAP
ENDCHAR

STARTCHAR Aogonek
ENCODING 161
SWIDTH 547 0
DWIDTH 8 0
BBX 9 14 0 -3
BITMAP
0600
0A00
0A00
1200
1200
2200
2200
7E00
4200
8200
8200
0200
0200
0180
ENDCHAR

STARTCHAR afii240
ENCODING 162
SWIDTH 500 0
DWIDTH 6 0
BBX 6 8 1 0
BITMAP
44
48
50
60
C0
A0
90
88
ENDCHAR

STARTCHAR Rcommaaccent
ENCODING 163
SWIDTH 592 0
DWIDTH 9 0
BBX 8 15 1 -4
BITMAP
3E
21
21
61
42
7C
48
C4
84
82
82
00
30
10
20
ENDCHAR

STARTCHAR currency
ENCODING 164
SWIDTH 456 0
DWIDTH 7 0
BBX 5 8 1 1
BITMAP
88
A8
50
88
88
50
A8
88
ENDCHAR

STARTCHAR Itilde
ENCODING 165
SWIDTH 228 0
DWIDTH 4 0
BBX 5 14 1 0
BITMAP
68
B0
00
20
20
20
60
40
40
40
C0
80
80
80
ENDCHAR

STARTCHAR Lcommaaccent
ENCODING 166
SWIDTH 456 0
DWIDTH 7 0
BBX 6 15 1 -4
BITMAP
20
20
20
60
40
40
40
C0
80
80
FC
00
30
10
20
ENDCHAR

STARTCHAR section
ENCODING 167
SWIDTH 456 0
DWIDTH 7 0
BBX 7 14 0 -3
BITMAP
0C
12
22
20
10
28
44
44
28
10
08
88
90
60
ENDCHAR

STARTCHAR hungarumlaut
ENCODING 168
SWIDTH 273 0
DWIDTH 4 0
BBX 4 2 0 9
BITMAP
50
A0
ENDCHAR

STARTCHAR Scaron
ENCODING 169
SWIDTH 547 0
DWIDTH 8 0
BBX 7 14 1 0
BITMAP
1A
0C
00
1C
22
42
40
20
18
04
04
84
88
70
ENDCHAR

STARTCHAR Emacron
ENCODING 170
SWIDTH 547 0
DWIDTH 8 0
BBX 7 13 1 0
BITMAP
1E
00
3E
20
20
60
40
7C
40
C0
80
80
FC
ENDCHAR

STARTCHAR Gcommaaccent
ENCODING 171
SWIDTH 638 0
DWIDTH 10 0
BBX 8 15 2 -4
BITMAP
1C
22
41
40
80
80
8E
82
82
44
38
00
30
10
20
ENDCHAR

STARTCHAR afii237
ENCODING 172
SWIDTH 614 0
DWIDTH 7 0
BBX 8 11 1 0
BITMAP
FF
08
08
08
7E
10
10
30
20
20
20
ENDCHAR

STARTCHAR hyphen
ENCODING 173
SWIDTH 273 0
DWIDTH 4 0
BBX 4 1 0 8
BITMAP
F0
ENDCHAR

STARTCHAR Zcaron
ENCODING 174
SWIDTH 501 0
DWIDTH 8 0
BBX 8 14 1 0
BITMAP
16
0C
00
3F
02
02
04
08
10
10
20
40
40
FE
ENDCHAR

STARTCHAR macron
ENCODING 175
SWIDTH 273 0
DWIDTH 4 0
BBX 4 1 0 9
BITMAP
F0
ENDCHAR

STARTCHAR degree
ENCODING 176
SWIDTH 328 0
DWIDTH 5 0
BBX 4 4 1 7
BITMAP
70
90
90
E0
ENDCHAR

STARTCHAR aogonek
ENCODING 177
SWIDTH 456 0
DWIDTH 7 0
BBX 7 11 1 -3
BITMAP
38
44
04
78
88
88
98
6C
08
08
06
ENDCHAR

STARTCHAR ogonek
ENCODING 178
SWIDTH 273 0
DWIDTH 4 0
BBX 3 3 1 -3
BITMAP
80
80
60
ENDCHAR

STARTCHAR rcommaaccent
ENCODING 179
SWIDTH 273 0
DWIDTH 4 0
BBX 5 12 0 -4
BITMAP
28
30
20
20
40
40
40
40
00
C0
40
80
ENDCHAR

STARTCHAR acute
ENCODING 180
SWIDTH 273 0
DWIDTH 4 0
BBX 2 2 1 9
BITMAP
40
80
ENDCHAR

STARTCHAR itilde
ENCODING 181
SWIDTH 182 0
DWIDTH 3 0
BBX 4 11 1 0
BITMAP
50
A0
00
40
40
40
40
80
80
80
80
ENDCHAR

STARTCHAR lcommaaccent
ENCODING 182
SWIDTH 182 0
DWIDTH 3 0
BBX 4 15 0 -4
BITMAP
10
10
10
20
20
20
20
40
40
40
40
00
C0
40
80
ENDCHAR

STARTCHAR caron
ENCODING 183
SWIDTH 273 0
DWIDTH 4 0
BBX 4 2 0 9
BITMAP
D0
60
ENDCHAR

STARTCHAR commaaccent
ENCODING 184
SWIDTH 333 0
DWIDTH 5 0
BBX 2 3 1 -4
BITMAP
C0
40
80
ENDCHAR

STARTCHAR scaron
ENCODING 185
SWIDTH 410 0
DWIDTH 6 0
BBX 6 11 1 0
BITMAP
34
18
00
38
44
40
30
08
88
88
70
ENDCHAR

STARTCHAR emacron
ENCODING 186
SWIDTH 456 0
DWIDTH 7 0
BBX 6 10 1 0
BITMAP
3C
00
38
44
44
F8
80
80
88
70
ENDCHAR

STARTCHAR gcommaaccent
ENCODING 187
SWIDTH 456 0
DWIDTH 7 0
BBX 7 15 0 -3
BITMAP
04
08
0C
00
1A
26
22
42
42
44
4C
34
04
88
70
ENDCHAR

STARTCHAR afii253
ENCODING 188
SWIDTH 280 0
DWIDTH 3 0
BBX 5 11 0 0
BITMAP
10
10
10
78
20
20
F8
40
40
40
20
ENDCHAR

STARTCHAR afii238
ENCODING 189
SWIDTH 723 0
DWIDTH 9 0
BBX 8 11 1 0
BITMAP
2E
31
21
61
43
42
42
C6
84
84
B8
ENDCHAR

STARTCHAR zcaron
ENCODING 190
SWIDTH 410 0
DWIDTH 6 0
BBX 6 11 1 0
BITMAP
34
18
00
7C
04
08
10
20
40
80
F8
ENDCHAR

STARTCHAR afii254
ENCODING 191
SWIDTH 556 0
DWIDTH 7 0
BBX 6 11 1 -3
BITMAP
58
64
44
44
88
88
88
90
10
10
E0
ENDCHAR

STARTCHAR Amacron
ENCODING 192
SWIDTH 547 0
DWIDTH 8 0
BBX 8 13 0 0
BITMAP
0F
00
06
0A
0A
12
12
22
22
7E
42
82
82
ENDCHAR

STARTCHAR Aacute
ENCODING 193
SWIDTH 547 0
DWIDTH 8 0
BBX 8 14 0 0
BITMAP
01
02
00
06
0A
0A
12
12
22
22
7E
42
82
82
ENDCHAR

STARTCHAR Acircumflex
ENCODING 194
SWIDTH 547 0
DWIDTH 8 0
BBX 8 14 0 0
BITMAP
06
0D
00
06
0A
0A
12
12
22
22
7E
42
82
82
ENDCHAR

STARTCHAR Atilde
ENCODING 195
SWIDTH 547 0
DWIDTH 8 0
BBX 9 14 0 0
BITMAP
0680
0B00
0000
0600
0A00
0A00
1200
1200
2200
2200
7E00
4200
8200
8200
ENDCHAR

STARTCHAR Adieresis
ENCODING 196
SWIDTH 547 0
DWIDTH 8 0
BBX 8 14 0 0
BITMAP
09
09
00
06
0A
0A
12
12
22
22
7E
42
82
82
ENDCHAR

STARTCHAR Aring
ENCODING 197
SWIDTH 547 0
DWIDTH 8 0
BBX 8 14 0 0
BITMAP
06
09
09
06
0A
0A
12
12
22
22
7E
42
82
82
ENDCHAR

STARTCHAR AE
ENCODING 198
SWIDTH 820 0
DWIDTH 12 0
BBX 12 11 0 0
BITMAP
03F0
0500
0900
1300
1200
23E0
2200
7E00
4400
8400
87E0
ENDCHAR

STARTCHAR Iogonek
ENCODING 199
SWIDTH 228 0
DWIDTH 4 0
BBX 3 14 1 -3
BITMAP
20
20
20
60
40
40
40
C0
80
80
80
80
80
60
ENDCHAR

STARTCHAR Ccaron
ENCODING 200
SWIDTH 592 0
DWIDTH 9 0
BBX 8 14 1 0
BITMAP
1A
0C
00
1C
22
41
40
80
80
80
82
82
44
38
ENDCHAR

STARTCHAR Eacute
ENCODING 201
SWIDTH 547 0
DWIDTH 8 0
BBX 7 14 1 0
BITMAP
04
08
00
3E
20
20
60
40
7C
40
C0
80
80
FC
ENDCHAR

STARTCHAR Eogonek
ENCODING 202
SWIDTH 547 0
DWIDTH 8 0
BBX 7 14 1 -3
BITMAP
3E
20
20
60
40
7C
40
C0
80
80
FC
08
08
06
ENDCHAR

STARTCHAR Edieresis
ENCODING 203
SWIDTH 547 0
DWIDTH 8 0
BBX 7 14 1 0
BITMAP
12
12
00
3E
20
20
60
40
7C
40
C0
80
80
FC
ENDCHAR

STARTCHAR Edotaccent
ENCODING 204
SWIDTH 547 0
DWIDTH 8 0
BBX 7 14 1 0
BITMAP
08
08
00
3E
20
20
60
40
7C
40
C0
80
80
FC
ENDCHAR

STARTCHAR Iacute
ENCODING 205
SWIDTH 228 0
DWIDTH 4 0
BBX 4 14 1 0
BITMAP
10
20
00
20
20
20
60
40
40
40
C0
80
80
80
ENDCHAR

STARTCHAR Icircumflex
ENCODING 206
SWIDTH 228 0
DWIDTH 4 0
BBX 5 14 1 0
BITMAP
30
68
00
20
20
20
60
40
40
40
C0
80
80
80
ENDCHAR

STARTCHAR Imacron
ENCODING 207
SWIDTH 228 0
DWIDTH 4 0
BBX 5 13 1 0
BITMAP
78
00
20
20
20
60
40
40
40
C0
80
80
80
ENDCHAR

STARTCHAR Eth
ENCODING 208
SWIDTH 592 0
DWIDTH 9 0
BBX 8 11 1 0
BITMAP
3C
22
21
61
41
F9
41
C2
82
84
F8
ENDCHAR

STARTCHAR Ncommaaccent
ENCODING 209
SWIDTH 592 0
DWIDTH 9 0
BBX 8 15 1 -4
BITMAP
21
21
31
53
52
5A
4A
CE
8C
84
84
00
30
10
20
ENDCHAR

STARTCHAR Omacron
ENCODING 210
SWIDTH 638 0
DWIDTH 10 0
BBX 8 13 2 0
BITMAP
1F
00
1C
22
41
41
81
81
81
82
82
44
38
ENDCHAR

STARTCHAR Kcommaaccent
ENCODING 211
SWIDTH 547 0
DWIDTH 8 0
BBX 7 15 1 -4
BITMAP
22
24
28
50
60
60
50
D0
88
88
84
00
30
10
20
ENDCHAR

STARTCHAR Ocircumflex
ENCODING 212
SWIDTH 638 0
DWIDTH 10 0
BBX 8 14 2 0
BITMAP
0C
1A
00
1C
22
41
41
81
81
81
82
82
44
38
ENDCHAR

STARTCHAR Otilde
ENCODING 213
SWIDTH 638 0
DWIDTH 10 0
BBX 8 14 2 0
BITMAP
0D
16
00
1C
22
41
41
81
81
81
82
82
44
38
ENDCHAR

STARTCHAR Odieresis
ENCODING 214
SWIDTH 638 0
DWIDTH 10 0
BBX 8 14 2 0
BITMAP
12
12
00
1C
22
41
41
81
81
81
82
82
44
38
ENDCHAR

STARTCHAR multiply
ENCODING 215
SWIDTH 479 0
DWIDTH 7 0
BBX 5 7 1 3
BITMAP
88
88
50
20
50
88
88
ENDCHAR

STARTCHAR Oslash
ENCODING 216
SWIDTH 638 0
DWIDTH 10 0
BBX 8 13 2 -1
BITMAP
01
1D
22
45
45
49
89
92
92
A2
44
B8
80
ENDCHAR

STARTCHAR Uogonek
ENCODING 217
SWIDTH 592 0
DWIDTH 9 0
BBX 8 14 1 -3
BITMAP
21
21
63
42
42
42
C6
84
84
88
70
20
20
18
ENDCHAR

STARTCHAR Uacute
ENCODING 218
SWIDTH 592 0
DWIDTH 9 0
BBX 8 14 1 0
BITMAP
02
04
00
21
21
63
42
42
42
C6
84
84
88
70
ENDCHAR

STARTCHAR Ucircumflex
ENCODING 219
SWIDTH 592 0
DWIDTH 9 0
BBX 8 14 1 0
BITMAP
06
0D
00
21
21
63
42
42
42
C6
84
84
88
70
ENDCHAR

STARTCHAR Udieresis
ENCODING 220
SWIDTH 592 0
DWIDTH 9 0
BBX 8 14 1 0
BITMAP
09
09
00
21
21
63
42
42
42
C6
84
84
88
70
ENDCHAR

STARTCHAR Utilde
ENCODING 221
SWIDTH 592 0
DWIDTH 9 0
BBX 8 14 1 0
BITMAP
0D
16
00
21
21
63
42
42
42
C6
84
84
88
70
ENDCHAR

STARTCHAR Umacron
ENCODING 222
SWIDTH 592 0
DWIDTH 9 0
BBX 8 13 1 0
BITMAP
1E
00
21
21
63
42
42
42
C6
84
84
88
70
ENDCHAR

STARTCHAR germandbls
ENCODING 223
SWIDTH 501 0
DWIDTH 8 0
BBX 6 11 1 0
BITMAP
18
24
24
24
58
48
44
44
84
A4
98
ENDCHAR

STARTCHAR amacron
ENCODING 224
SWIDTH 456 0
DWIDTH 7 0
BBX 6 10 1 0
BITMAP
3C
00
38
44
04
78
88
88
98
6C
ENDCHAR

STARTCHAR aacute
ENCODING 225
SWIDTH 456 0
DWIDTH 7 0
BBX 6 11 1 0
BITMAP
08
10
00
38
44
04
78
88
88
98
6C
ENDCHAR

STARTCHAR acircumflex
ENCODING 226
SWIDTH 456 0
DWIDTH 7 0
BBX 6 11 1 0
BITMAP
18
2C
00
38
44
04
78
88
88
98
6C
ENDCHAR

STARTCHAR atilde
ENCODING 227
SWIDTH 456 0
DWIDTH 7 0
BBX 7 11 1 0
BITMAP
1A
2C
00
38
44
04
78
88
88
98
6C
ENDCHAR

STARTCHAR adieresis
ENCODING 228
SWIDTH 456 0
DWIDTH 7 0
BBX 6 11 1 0
BITMAP
28
28
00
38
44
04
78
88
88
98
6C
ENDCHAR

STARTCHAR aring
ENCODING 229
SWIDTH 456 0
DWIDTH 7 0
BBX 6 12 1 0
BITMAP
10
28
10
00
38
44
04
78
88
88
98
6C
ENDCHAR

STARTCHAR ae
ENCODING 230
SWIDTH 729 0
DWIDTH 11 0
BBX 10 8 1 0
BITMAP
3B80
4C40
0840
7F80
8800
8800
9480
6300
ENDCHAR

STARTCHAR iogonek
ENCODING 231
SWIDTH 182 0
DWIDTH 3 0
BBX 3 14 1 -3
BITMAP
40
40
00
40
40
40
40
80
80
80
80
80
80
60
ENDCHAR

STARTCHAR ccaron
ENCODING 232
SWIDTH 410 0
DWIDTH 6 0
BBX 5 11 1 0
BITMAP
68
30
00
30
48
48
80
80
88
90
60
ENDCHAR

STARTCHAR eacute
ENCODING 233
SWIDTH 456 0
DWIDTH 7 0
BBX 6 11 1 0
BITMAP
08
10
00
38
44
44
F8
80
80
88
70
ENDCHAR

STARTCHAR eogonek
ENCODING 234
SWIDTH 456 0
DWIDTH 7 0
BBX 6 11 1 -3
BITMAP
38
44
44
F8
80
80
88
70
20
20
18
ENDCHAR

STARTCHAR edieresis
ENCODING 235
SWIDTH 456 0
DWIDTH 7 0
BBX 6 11 1 0
BITMAP
28
28
00
38
44
44
F8
80
80
88
70
ENDCHAR

STARTCHAR edotaccent
ENCODING 236
SWIDTH 456 0
DWIDTH 7 0
BBX 6 11 1 0
BITMAP
10
10
00
38
44
44
F8
80
80
88
70
ENDCHAR

STARTCHAR iacute
ENCODING 237
SWIDTH 228 0
DWIDTH 3 0
BBX 3 11 1 0
BITMAP
20
40
00
40
40
40
40
80
80
80
80
ENDCHAR

STARTCHAR icircumflex
ENCODING 238
SWIDTH 228 0
DWIDTH 3 0
BBX 4 11 1 0
BITMAP
60
B0
00
40
40
40
40
80
80
80
80
ENDCHAR

STARTCHAR imacron
ENCODING 239
SWIDTH 228 0
DWIDTH 3 0
BBX 4 10 1 0
BITMAP
F0
00
40
40
40
40
80
80
80
80
ENDCHAR

STARTCHAR dcroat
ENCODING 240
SWIDTH 456 0
DWIDTH 7 0
BBX 8 11 1 0
BITMAP
02
0F
02
34
4C
44
84
88
88
98
68
ENDCHAR

STARTCHAR ncommaaccent
ENCODING 241
SWIDTH 456 0
DWIDTH 7 0
BBX 6 12 1 -4
BITMAP
58
64
44
44
88
88
88
88
00
60
20
40
ENDCHAR

STARTCHAR omacron
ENCODING 242
SWIDTH 456 0
DWIDTH 7 0
BBX 6 10 1 0
BITMAP
3C
00
38
44
44
84
84
88
88
70
ENDCHAR

STARTCHAR kcommaaccent
ENCODING 243
SWIDTH 410 0
DWIDTH 6 0
BBX 6 15 1 -4
BITMAP
20
20
20
44
48
50
60
D0
90
88
88
00
60
20
40
ENDCHAR

STARTCHAR ocircumflex
ENCODING 244
SWIDTH 456 0
DWIDTH 7 0
BBX 6 11 1 0
BITMAP
18
2C
00
38
44
44
84
84
88
88
70
ENDCHAR

STARTCHAR otilde
ENCODING 245
SWIDTH 456 0
DWIDTH 7 0
BBX 7 11 1 0
BITMAP
1A
2C
00
38
44
44
84
84
88
88
70
ENDCHAR

STARTCHAR odieresis
ENCODING 246
SWIDTH 456 0
DWIDTH 7 0
BBX 6 11 1 0
BITMAP
24
24
00
38
44
44
84
84
88
88
70
ENDCHAR

STARTCHAR divide
ENCODING 247
SWIDTH 479 0
DWIDTH 7 0
BBX 5 7 1 2
BITMAP
20
20
00
F8
00
20
20
ENDCHAR

STARTCHAR oslash
ENCODING 248
SWIDTH 501 0
DWIDTH 7 0
BBX 6 10 1 -1
BITMAP
04
3C
4C
54
94
A4
A8
C8
F0
80
ENDCHAR

STARTCHAR uogonek
ENCODING 249
SWIDTH 456 0
DWIDTH 7 0
BBX 7 11 1 -3
BITMAP
44
44
44
44
88
88
98
68
08
08
06
ENDCHAR

STARTCHAR uacute
ENCODING 250
SWIDTH 456 0
DWIDTH 7 0
BBX 6 11 1 0
BITMAP
08
10
00
44
44
44
44
88
88
98
68
ENDCHAR

STARTCHAR ucircumflex
ENCODING 251
SWIDTH 456 0
DWIDTH 7 0
BBX 6 11 1 0
BITMAP
18
2C
00
44
44
44
44
88
88
98
68
ENDCHAR

STARTCHAR udieresis
ENCODING 252
SWIDTH 456 0
DWIDTH 7 0
BBX 6 11 1 0
BITMAP
28
28
00
44
44
44
44
88
88
98
68
ENDCHAR

STARTCHAR utilde
ENCODING 253
SWIDTH 456 0
DWIDTH 7 0
BBX 7 11 1 0
BITMAP
1A
2C
00
44
44
44
44
88
88
98
68
ENDCHAR

STARTCHAR umacron
ENCODING 254
SWIDTH 456 0
DWIDTH 7 0
BBX 6 10 1 0
BITMAP
3C
00
44
44
44
44
88
88
98
68
ENDCHAR

STARTCHAR dotaccent
ENCODING 255
SWIDTH 273 0
DWIDTH 4 0
BBX 1 2 2 9
BITMAP
80
80
ENDCHAR
ENDFONT
